User Type,Username,Date,Text
,QborT,2011-02-08T20:09Z,English dubbed?  Hardsubbed?  Whats the deal with this release?
[T],CODYBOSS1969,2011-02-08T23:19Z,the video file in this torrent it's exactly the same with the one the following torrent [uploaded before!]:      http://thepiratebay.org/torrent/6148830/illusionniste_2010_%5Bthe_illusionist%5D_animated              [Please check with MediaInfo]
[T],CODYBOSS1969,2011-02-08T23:22Z,"General
Complete name                    : 2010.illusionniste.avi
Format                           : AVI
Format/Info                      : Audio Video Interleave
File size                        : 700 MiB
Duration                         : 1h 16mn
Overall bit rate                 : 1 279 Kbps
Writing application              : Nandub v1.0rc2
Writing library                  : Nandub build 1853/release

Video
ID                               : 0
Format                           : MPEG-4 Visual
Format profile                   : Advanced Simple@L5
Format settings, BVOP            : Yes
Format settings, QPel            : No
Format settings, GMC             : No warppoints
Format settings, Matrix          : Default (H.263)
Codec ID                         : XVID
Codec ID/Hint                    : XviD
Duration                         : 1h 16mn
Bit rate                         : 1 141 Kbps
Width                            : 640 pixels
Height                           : 336 pixels
Display aspect ratio             : 1.905
Frame rate                       : 25.000 fps
Color space                      : YUV
Chroma subsampling               : 4:2:0
Bit depth                        : 8 bits
Scan type                        : Progressive
Compression mode                 : Lossy
Bits/(Pixel*Frame)               : 0.212
Stream size                      : 624 MiB (89%)
Writing library                  : XviD 57

Audio
ID                               : 1
Format                           : MPEG Audio
Format version                   : Version 1
Format profile                   : Layer 3
Mode                             : Joint stereo
Mode extension                   : MS Stereo
Codec ID                         : 55
Codec ID/Hint                    : MP3
Duration                         : 1h 16mn
Bit rate mode                    : Variable
Bit rate                         : 128 Kbps
Channel(s)                       : 2 channels
Sampling rate                    : 48.0 KHz
Compression mode                 : Lossy
Stream size                      : 68.9 MiB (10%)
Alignment                        : Aligned on interleaves
Interleave, duration             : 24 ms (0.60 video frame)
Interleave, preload duration     : 140 ms
Writing library                  : LAME3.90.
Encoding settings                : -m j -V 4 -q 2 -lowpass 17.6 --abr 128"
,slcghst,2011-02-09T15:54Z,Merci!
,king1893,2011-02-14T10:08Z,thnx....
,aestus,2011-02-17T14:47Z,"Just to let you know, no subtitles are necessary for the film, as there is very little dialogue."
,ingles666,2011-05-26T15:40Z,ยกGracias!
